<?xml version="1.0" standalone="no"?>
<!DOCTYPE svg PUBLIC "-//W3C//DTD SVG 20010904//EN" "http://www.w3.org/TR/2001/REC-SVG-20010904/DTD/svg10.dtd">
<!-- Created using Krita: https://krita.org -->
<svg xmlns="http://www.w3.org/2000/svg" 
    xmlns:xlink="http://www.w3.org/1999/xlink"
    xmlns:krita="http://krita.org/namespaces/svg/krita"
    xmlns:sodipodi="http://sodipodi.sourceforge.net/DTD/sodipodi-0.dtd"
    width="160pt"
    height="240pt"
    viewBox="0 0 160 240">
<defs>
  <radialGradient id="gradient0" gradientUnits="objectBoundingBox" cx="0.533055550690836" cy="0.453532345301695" fx="0.627829467591735" fy="0.43327328166584" r="0.769466084686321" spreadMethod="pad">
   <stop stop-color="#ffffff" offset="0" stop-opacity="1"/>
   <stop stop-color="#301f75" offset="0.248310804367065" stop-opacity="1"/>
   <stop stop-color="#3b1f7b" offset="0.390202701091766" stop-opacity="1"/>
   <stop stop-color="#341f79" offset="0.554054081439972" stop-opacity="1"/>
   <stop stop-color="#1e1f6d" offset="0.684121608734131" stop-opacity="1"/>
   <stop stop-color="#1a1f6b" offset="0.751689195632935" stop-opacity="1"/>
   <stop stop-color="#ffffff" offset="0.9375" stop-opacity="1"/>
  </radialGradient>
  <radialGradient id="gradient1" gradientUnits="objectBoundingBox" cx="0.505761493137419" cy="0.506806901479418" fx="0.505761493137423" fy="0.506806901479421" r="0.36842122068025" spreadMethod="pad">
   <stop stop-color="#c32d2e" offset="0.00567107740789652" stop-opacity="1"/>
   <stop stop-color="#ad242a" offset="0.228733465075493" stop-opacity="1"/>
   <stop stop-color="#b5282d" offset="0.319470703601837" stop-opacity="1"/>
   <stop stop-color="#b7292d" offset="0.395085066556931" stop-opacity="1"/>
   <stop stop-color="#a31f24" offset="0.550094544887543" stop-opacity="1"/>
   <stop stop-color="#8a1723" offset="0.712665379047394" stop-opacity="1"/>
  </radialGradient>
 </defs>
<path id="shape1" transform="translate(16.318501768859, 16.2348946159954)" fill="url(#gradient0)" fill-rule="evenodd" stroke="#000000" stroke-width="0.64" stroke-linecap="square" stroke-linejoin="bevel" d="M80.6666 2.18381L79.3171 1.83849L77.9657 1.52344L76.6128 1.2385L75.2588 0.983477L73.9041 0.758212L72.5492 0.562529L71.1943 0.396256L69.84 0.25922L68.4867 0.151248L67.1347 0.0721697L65.7845 0.021811L64.4364 0L63.091 0.00656419L61.7486 0.0413312L60.4095 0.104128L59.0743 0.194784L57.7433 0.313125L56.417 0.458978L55.0956 0.632173L53.7798 0.832536L52.4698 1.05989L51.1661 1.31408L49.8691 1.59491L48.5792 1.90222L47.2967 2.23584L46.0222 2.59559L44.756 2.9813L43.4986 3.39281L42.2503 3.82992L41.0115 4.29249L39.7827 4.78032L38.5643 5.29325L37.3567 5.83111L36.1602 6.39373L34.9754 6.98092L33.8025 7.59253L32.6421 8.22837L31.4945 8.88828L30.3601 9.57208L29.2394 10.2796L28.1328 11.0107L27.0406 11.7651L25.9633 12.5428L24.9013 13.3434L23.8549 14.167L22.8247 15.0132L21.811 15.8819L20.8142 16.773L19.8348 17.6862L18.8731 18.6215L17.9295 19.5785L17.0045 20.5572L16.0985 21.5574L15.2119 22.5789L14.345 23.6215L13.4984 24.6851L12.6724 25.7695L11.8674 26.8745L11.0838 27.9999L10.322 29.1456L9.58255 30.3114L8.86572 31.4972L8.17195 32.7027L7.50435 33.9228L6.86567 35.1522L6.25587 36.3905L5.67486 37.6372L5.12259 38.8918L4.59898 40.1541L4.10397 41.4234L3.6375 42.6995L3.19949 43.9817L2.78988 45.2698L2.4086 46.5632L2.05559 47.8615L1.73078 49.1643L1.43411 50.4712L1.1655 51.7817L0.924888 53.0953L0.712211 54.4116L0.527401 55.7303L0.37039 57.0507L0.241112 58.3726L0.139501 59.6955L0.0654899 61.0189L0.0190117 62.3424L0 63.6656L0.00838805 64.9879L0.0441092 66.3091L0.107097 67.6286L0.197284 68.946L0.314605 70.2608L0.458992 71.5727L0.630379 72.8812L0.828699 74.1858L1.05389 75.4861L1.30587 76.7817L1.58459 78.0721L1.88998 79.3569L2.22196 80.6357L2.58048 81.908L2.96547 83.1734L3.37685 84.4314L3.81457 85.6816L4.27856 86.9236L4.76874 88.1569L5.28506 89.3811L5.82744 90.5957L6.39583 91.8003L6.99014 92.9945L7.61033 94.1779L8.25631 95.3499L8.92803 96.5102L9.62541 97.6583L10.3484 98.7938L11.0969 99.9162L11.8709 101.025L12.6703 102.12L13.495 103.201L14.345 104.266L15.2202 105.317L16.1205 106.352L17.0459 107.371L17.9962 108.373L18.9716 109.358L19.9717 110.326L20.9926 111.272L22.0295 112.192L23.0822 113.086L24.1502 113.955L25.233 114.798L26.3302 115.615L27.4413 116.406L28.566 117.172L29.7037 117.911L30.854 118.624L32.0165 119.311L33.1908 119.972L34.3763 120.607L35.5727 121.216L36.7795 121.798L37.9963 122.354L39.2226 122.884L40.4579 123.387L41.7019 123.864L42.9541 124.314L44.2141 124.738L45.4814 125.136L46.7555 125.506L48.0361 125.85L49.3226 126.168L50.6147 126.458L51.9119 126.722L53.2138 126.959L54.5199 127.17L55.8297 127.353L57.1429 127.509L58.4589 127.639L59.7774 127.741L61.0979 127.816L62.42 127.864L63.7432 127.885L65.067 127.879L66.3911 127.845L67.715 127.784L69.0383 127.696L70.3604 127.581L71.681 127.438L72.9996 127.267L74.3159 127.069L75.6292 126.844L76.9392 126.59L78.2455 126.31L79.5476 126.001L80.8451 125.665L82.1375 125.301L83.4244 124.909L84.7053 124.489L85.9798 124.042L87.2475 123.566L88.5079 123.062L89.7605 122.531L91.005 121.971L92.2409 121.383L93.4677 120.767L94.685 120.123L95.8924 119.451L97.0894 118.75L98.2755 118.021L99.4457 117.267L100.595 116.49L101.723 115.692L102.83 114.873L103.915 114.034L104.979 113.174L106.021 112.294L107.041 111.395L108.039 110.476L109.015 109.539L109.969 108.584L110.9 107.611L111.808 106.621L112.694 105.614L113.557 104.59L114.396 103.55L115.213 102.494L116.006 101.424L116.775 100.338L117.521 99.2377L118.243 98.1235L118.941 96.9958L119.614 95.8548L120.264 94.701L120.889 93.5349L121.489 92.3568L122.065 91.1673L122.615 89.9666L123.141 88.7552L123.642 87.5336L124.117 86.3021L124.566 85.0611L124.99 83.8111L125.388 82.5526L125.76 81.2858L126.106 80.0113L126.426 78.7294L126.72 77.4406L126.986 76.1453L127.226 74.8439L127.44 73.5368L127.626 72.2244L127.785 70.9071L127.916 69.5855L128.021 68.2598L128.097 66.9305L128.146 65.5981L128.167 64.2629L128.16 62.9253L128.124 61.5858L128.06 60.2448L127.968 58.9027L127.847 57.5599L127.697 56.2169L127.518 54.874L127.31 53.5317L127.073 52.1903L126.806 50.8504L126.51 49.5123L126.183 48.1765L125.827 46.8433L125.441 46.1432L125.49 46.2566C125.904 51.7709 125.647 56.252 124.719 59.6999C124.465 60.9209 124.18 62.1308 123.867 63.3295C123.466 64.7157 122.988 66.0856 122.435 67.4392C121.613 69.4181 120.693 71.3692 119.675 73.2924C117.601 76.8464 115.075 80.2785 112.097 83.5887C109.216 86.4119 105.858 89.0716 102.024 91.568C96.4226 94.5213 98.9095 93.0764 95.3098 94.762C92.6036 95.971 83.9184 98.2472 79.0584 98.202C75.088 98.4028 66.3034 97.3153 60.6963 95.2273C57.6732 93.5873 52.9469 91.5966 49.2852 88.6332C51.5249 90.3476 43.9295 85.1445 41.634 82.1013C39.9196 79.8966 38.5348 78.0185 37.262 76.0919C36.0488 74.2557 34.9044 72.1124 34.2028 70.7503C33.4028 69.6294 31.933 65.5314 31.5046 63.726C30.9899 62.2261 31.1527 61.1494 30.2105 57.9689C30.041 56.4354 29.6987 53.7488 29.6824 51.8344C29.6733 50.7675 29.5183 50.0984 29.5215 49.0748C29.5256 47.769 29.8532 46.1186 29.9054 44.9988C29.938 44.0696 30.328 41.6369 30.7225 40.0096C31.1171 38.3824 31.1637 37.4206 31.8848 35.3131C32.6625 33.0402 33.8637 30.7092 34.7904 28.6424C35.2631 27.5879 36.0936 26.0864 36.6428 25.2143C37.3148 24.1475 37.9232 23.3581 38.2227 22.8023C38.8368 21.6624 39.8013 20.4306 41.061 18.9821C42.0817 17.8085 43.3099 16.4377 44.5939 15.2937C45.9342 14.0994 47.1995 12.9317 48.6937 11.8363C50.3636 10.612 52.2198 9.32806 53.6166 8.55982C55.488 7.53052 57.086 6.8047 59.5676 5.69898C61.8203 4.69521 64.8289 3.79013 67.3912 3.31546C68.1419 3.1764 70.5914 2.67823 72.0021 2.50493C73.0831 2.37214 74.1661 2.23591 74.9259 2.21874C75.6666 2.202 76.3441 2.19788 77.0139 2.18311C79.3216 2.1322 77.886 2.24328 80.2722 2.18203" sodipodi:nodetypes="cccccccccccccccccccccccccccccccccccccccccccccccccccccccccccccccccccccccccccccccccccccccccccccccccccccccccccccccccccccccccccccccccccccccccccccccccccccccccccccccccccccccccccccccccccccccccccccccccccccccccccccccccccccccccccccccccccccccccccccccccccccccccccccccccccccccccccccccccccccccccccccc"/><path id="shape0" transform="translate(55.9999961759436, 23.4399998355746)" fill="url(#gradient1)" fill-rule="evenodd" stroke="#000000" stroke-width="0.32" stroke-linecap="square" stroke-linejoin="bevel" d="M9.43803e-08 40.8C-0.000591077 40.7679 2.77617 40.7223 3.96 40.62C4.526 40.5711 5.27712 40.4599 5.84 40.38C6.22477 40.3254 6.73549 40.2366 7.12 40.18C7.46754 40.1289 7.93369 40.0781 8.28 40.02C8.82868 39.928 9.55975 39.7916 10.1 39.66C10.664 39.5226 11.4002 39.2753 11.96 39.12C12.3667 39.0072 12.9164 38.8824 13.32 38.76C13.5323 38.6956 13.8109 38.5945 14.02 38.52C14.2972 38.4213 14.6644 38.2832 14.94 38.18C15.2886 38.0495 15.757 37.884 16.1 37.74C16.4958 37.5738 17.0101 37.3202 17.4 37.14C17.8021 36.9542 18.3457 36.721 18.74 36.52C19.3641 36.2018 20.1829 35.7462 20.78 35.38C21.303 35.0592 21.9781 34.5934 22.48 34.24C23.1569 33.7634 24.0615 33.1255 24.7 32.6C25.2894 32.1149 26.0383 31.4185 26.58 30.88C27.3622 30.1024 28.3727 29.0257 29.08 28.18C29.7058 27.4316 30.4819 26.3808 31.04 25.58C31.6106 24.7613 32.3372 23.6417 32.84 22.78C33.4684 21.7031 34.2529 20.2296 34.78 19.1C35.2756 18.0381 35.8437 16.5765 36.26 15.48C36.6007 14.5826 37.0288 13.3745 37.32 12.46C37.7231 11.1938 38.203 9.48561 38.54 8.2C38.5728 8.07474 38.6106 7.90614 38.64 7.78C38.781 7.17469 38.9737 6.36843 39.1 5.76C39.1794 5.37753 39.2631 4.86301 39.34 4.48C39.3908 4.22735 39.47 3.89278 39.52 3.64C39.5591 3.44261 40.0522 -4.79588e-05 40.05 5.01082e-10C40.0454 9.96501e-05 40.0343 0.175657 40.04 0.25C40.0647 0.574767 40.7284 3.78278 40.87 4.52C40.9034 4.69392 40.9445 4.9265 40.98 5.1C41.0249 5.31964 41.0962 5.61016 41.14 5.83C41.2031 6.14679 41.2634 6.57402 41.33 6.89C41.3956 7.20099 41.5017 7.61184 41.58 7.92C41.6289 8.11253 41.6965 8.36871 41.75 8.56C41.8073 8.76476 41.8934 9.03507 41.95 9.24C42.0202 9.49385 42.1077 9.83411 42.17 10.09C42.2592 10.4562 42.3492 10.9522 42.45 11.315C42.5387 11.6341 42.6992 12.0477 42.795 12.365C42.888 12.6732 42.9821 13.0935 43.08 13.4C43.1878 13.7374 43.364 14.1768 43.485 14.51C43.6206 14.8833 43.7834 15.3884 43.935 15.755C44.0526 16.0393 44.2387 16.4064 44.37 16.685C44.455 16.8652 44.575 17.1026 44.655 17.285C44.7758 17.5604 44.914 17.9375 45.03 18.215C45.1567 18.5181 45.3279 18.9215 45.465 19.22C45.6153 19.5473 45.8364 19.9742 45.99 20.3C46.1377 20.6132 46.3118 21.0423 46.47 21.35C46.6311 21.6634 46.8808 22.0633 47.055 22.37C47.259 22.7291 47.5163 23.2168 47.73 23.57C47.9438 23.9233 48.2476 24.3835 48.48 24.725C48.7286 25.0904 49.0683 25.5727 49.335 25.925C49.6311 26.3161 50.0572 26.8138 50.36 27.2C50.6769 27.6042 51.0769 28.161 51.4 28.56C51.748 28.9897 52.2212 29.5577 52.6 29.96C52.9545 30.3365 53.4562 30.8131 53.84 31.16C54.2125 31.4967 54.7295 31.9241 55.12 32.24C55.6984 32.7079 56.4812 33.3186 57.08 33.76C57.7873 34.2813 58.7363 34.9738 59.48 35.44C59.9801 35.7534 60.6728 36.1342 61.2 36.4C61.6935 36.6488 62.3736 36.9375 62.88 37.16C63.6921 37.5168 64.7712 38.0057 65.6 38.32C66.3091 38.5889 67.2696 38.9177 68 39.12C69.0648 39.4149 70.5115 39.728 71.6 39.92C72.7788 40.128 74.3712 40.2902 75.56 40.44C76.2555 40.5276 77.1821 40.6566 77.88 40.72C78.4664 40.7733 79.8401 40.8383 79.84 40.84C79.84 40.8406 79.3355 40.7942 79.12 40.8C78.2421 40.8236 77.0743 41.0104 76.2 41.12C75.0938 41.2587 73.6152 41.4366 72.52 41.64C71.4192 41.8444 69.9642 42.198 68.88 42.48C68.046 42.6969 66.9384 43.0107 66.12 43.28C65.3307 43.5397 64.2857 43.918 63.52 44.24C62.5907 44.6308 61.3857 45.2351 60.48 45.68C59.8153 46.0065 58.9227 46.4337 58.28 46.8C57.7744 47.0882 57.1203 47.5109 56.64 47.84C56.0742 48.2278 55.3419 48.779 54.8 49.2C54.2008 49.6656 53.4024 50.2916 52.84 50.8C52.3748 51.2205 51.7979 51.8301 51.36 52.28C50.9219 52.7301 50.3336 53.3279 49.92 53.8C49.493 54.2874 48.9407 54.9562 48.56 55.48C48.2239 55.9425 47.8287 56.5979 47.52 57.08C47.1682 57.6296 46.6994 58.3628 46.36 58.92C45.9907 59.5263 45.4799 60.3277 45.16 60.96C44.666 61.9366 44.1429 63.3082 43.72 64.32C43.4502 64.9656 43.0468 65.8142 42.84 66.48C42.7238 66.854 42.7074 67.3957 42.56 67.76C42.2857 68.4382 42.0342 69.3654 41.92 70.08C41.7782 70.968 41.4133 72.118 41.24 73C41.0504 73.9654 40.7409 75.2696 40.5625 76.2375C40.5203 76.4663 40.1053 80.8057 40.105 80.8C40.021 79.3793 39.6932 77.5938 39.6784 77.5717C39.6635 77.4346 39.6088 76.2277 39.5837 76.15C39.3329 75.3735 39.2691 74.3344 39.12 73.56C38.9594 72.726 38.6827 71.6254 38.48 70.8C38.3204 70.1499 38.0979 69.2853 37.92 68.64C37.704 67.8567 37.4332 66.8038 37.16 66.04C36.9232 65.378 36.5282 64.5225 36.24 63.88C35.9522 63.2385 35.4757 62.422 35.24 61.76C34.956 60.9625 34.2984 59.9044 33.86 59.14C33.4105 58.3563 32.7713 57.3571 32.28 56.6C31.9106 56.0308 31.378 55.2948 30.96 54.76C30.5724 54.2641 30.0219 53.6274 29.6 53.16C29.0657 52.5681 28.342 51.7839 27.76 51.24C27.1323 50.6534 26.2415 49.9241 25.56 49.4C24.7689 48.7916 23.6621 48.0471 22.84 47.48C22.2921 47.1021 21.579 46.5637 21 46.24C20.2433 45.8169 19.1469 45.4109 18.36 45.04C17.8406 44.7952 17.17 44.4181 16.64 44.2C15.88 43.8873 14.8229 43.5752 14.04 43.32C13.4302 43.1212 12.6189 42.8465 12 42.68C11.1573 42.4533 10.0101 42.1624 9.1525 42C8.37757 41.8533 7.68522 41.8097 6.9225 41.6075C6.02708 41.3701 4.15432 41.1914 3.13 41.0262C2.50862 40.926 1.68893 40.8582 1.065 40.8587C0.800973 40.8589 0.000230761 40.8125 9.43803e-08 40.8Z" sodipodi:nodetypes="cssssssssssssssssssssssssssssssssssssssssssssssssssssssssssssssssssssssssssssssssssssssssssscsssssssssssssssssssssscc"/><text id="shape01" krita:useRichText="true" text-rendering="auto" krita:textVersion="3" transform="translate(15.5177, 181.80865)" fill="#a81f3d" stroke-opacity="0" stroke="#000000" stroke-width="0" stroke-linecap="square" stroke-linejoin="bevel" letter-spacing="0" text-anchor="middle" word-spacing="0" style="text-align: start;text-align-last: auto;font-family: Cinzel Decorative;font-size: 28;font-weight: 700;"><tspan x="67.5">Nyxtale</tspan><tspan x="67.5" dy="37.5">Studios</tspan></text>
</svg>
